<svg width="500" height="400" viewBox="0 0 500 400" fill="none" xmlns="http://www.w3.org/2000/svg">
  <!-- Background -->
  <rect width="500" height="400" fill="#F8FAFC"/>
  
  <!-- Building -->
  <rect x="100" y="100" width="300" height="200" fill="#E0F2FE" rx="10"/>
  <rect x="120" y="120" width="80" height="60" fill="#7DD3FC" rx="5"/>
  <rect x="220" y="120" width="80" height="60" fill="#7DD3FC" rx="5"/>
  <rect x="320" y="120" width="60" height="60" fill="#7DD3FC" rx="30"/>
  <rect x="120" y="200" width="80" height="80" fill="#BAE6FD" rx="5"/>
  <rect x="220" y="200" width="160" height="80" fill="#BAE6FD" rx="5"/>
  
  <!-- Roof -->
  <path d="M80 100L250 40L420 100" stroke="#0EA5E9" stroke-width="10" stroke-linecap="round"/>
  
  <!-- Door -->
  <rect x="220" y="240" width="40" height="60" fill="#0EA5E9" rx="5"/>
  <circle cx="245" cy="270" r="2" fill="white"/>
  
  <!-- Windows -->
  <rect x="130" y="210" width="40" height="20" fill="#0EA5E9" rx="3"/>
  <rect x="130" y="130" width="40" height="20" fill="#0EA5E9" rx="3"/>
  <rect x="230" y="130" width="40" height="20" fill="#0EA5E9" rx="3"/>
  
  <!-- Decorative Elements -->
  <circle cx="100" cy="80" r="15" fill="#F59E0B"/>
  <circle cx="400" cy="60" r="10" fill="#F59E0B" opacity="0.8"/>
  <circle cx="350" cy="50" r="8" fill="#F59E0B" opacity="0.6"/>
  
  <!-- Ground -->
  <rect y="300" width="500" height="100" fill="#D1FAE5"/>
  
  <!-- Trees -->
  <rect x="50" y="280" width="15" height="30" fill="#A16207"/>
  <circle cx="57.5" cy="270" r="25" fill="#22C55E"/>
  
  <rect x="400" y="270" width="12" height="25" fill="#A16207"/>
  <circle cx="406" cy="255" r="20" fill="#22C55E"/>
  
  <!-- Clouds -->
  <circle cx="300" cy="100" r="20" fill="white"/>
  <circle cx="320" cy="100" r="25" fill="white"/>
  <circle cx="340" cy="95" r="15" fill="white"/>
  
  <circle cx="200" cy="80" r="15" fill="white" opacity="0.8"/>
  <circle cx="220" cy="80" r="20" fill="white" opacity="0.8"/>
  <circle cx="240" cy="75" r="12" fill="white" opacity="0.8"/>
</svg>
